<svg enable-background="new 0 0 200 46.6" viewBox="0 0 200 46.6" xmlns="http://www.w3.org/2000/svg"><g fill="#333"><path d="m0 0h5.6v15.5s2.1-2.9 6.3-2.9c5.7 0 10.8 4.8 10.8 11.6s-5 11.6-10.8 11.6c-4.8 0-6.7-3.5-6.7-3.5v2.9h-5.2zm5.6 27.6s1.6 3.1 5.3 3.1c3.8 0 6.1-2.8 6.1-6.4s-2.3-6.4-6.1-6.4c-3.7 0-5.3 3.1-5.3 3.1z"/><path d="m48.9 24.2c0 6.5-5.2 11.6-11.8 11.6s-11.8-5.1-11.8-11.6 5.2-11.6 11.8-11.6 11.8 5.1 11.8 11.6zm-5.7 0c0-3.5-2.3-6.4-6.1-6.4s-6.1 2.9-6.1 6.4 2.3 6.4 6.1 6.4 6.1-2.9 6.1-6.4z"/><path d="m53.7 39.9s1.5 1.4 2.9 1.4c1.9 0 2.7-.6 3.8-3.3l.9-2.3-10.7-22.5h6.2l7.5 16.2 5.8-16.2h6l-10.7 27.1c-1.9 4.9-5 6.4-8.3 6.4-3.4 0-5.9-2.3-5.9-2.3z"/><path d="m82.7 2.3c2.1 0 3.7 1.6 3.7 3.7s-1.6 3.7-3.7 3.7-3.7-1.6-3.7-3.7 1.6-3.7 3.7-3.7zm-2.8 10.9h5.6v22.1h-5.6z"/><path d="m112 21v14.3h-5.6v-12.9c0-3.2-2-4.5-4.4-4.5-2.9 0-4.4 2.8-4.4 2.8v14.6h-5.6v-22.1h5.2v3.2s2-3.8 6.6-3.8c4.3 0 8.2 3 8.2 8.4z"/><path d="m115.8 13.2h4.3v-6.6h5.6v6.6h6.7v5h-6.7v8.9c0 2.7 1.4 3.5 2.9 3.5 1.3 0 2.3-.8 2.3-.8l2.1 4.6s-2.1 1.4-5.3 1.4c-4.3 0-7.6-3.1-7.6-7.8v-9.8h-4.3z"/><path d="m152.2 13.3-2 5s-1-.5-2.7-.5c-3.4 0-4.9 3-4.9 3v14.5h-5.6v-22.1h5.3v3.2s1.9-3.8 6-3.8c2.1 0 3.9.7 3.9.7z"/><path d="m175.1 24.1v2.1h-16.5c.4 2 2.7 4.5 6.2 4.5 3.9 0 6.1-2.2 6.1-2.2l2.8 4.2s-3.5 3.2-8.9 3.2c-6.7 0-11.9-5.1-11.9-11.6s4.7-11.6 11.1-11.6c6-.1 11.1 4.6 11.1 11.4zm-5.6-1.9c-.1-1.9-1.9-4.5-5.6-4.5-3.6 0-5.2 2.5-5.4 4.5z"/><path d="m200 24.1v2.1h-16.5c.4 2 2.7 4.5 6.2 4.5 3.9 0 6.1-2.2 6.1-2.2l2.8 4.2s-3.5 3.2-8.9 3.2c-6.7 0-11.9-5.1-11.9-11.6s4.7-11.6 11.1-11.6c6-.1 11.1 4.6 11.1 11.4zm-5.6-1.9c-.1-1.9-1.9-4.5-5.6-4.5-3.6 0-5.2 2.5-5.4 4.5z"/></g></svg>